PathFileType	4	(X/Y/Z)	32_2_24_p1_0-341.trc
DataRate	CameraRate	NumFrames	NumMarkers	Units	OrigDataRate	OrigDataStartFrame	OrigNumFrames
59.0	59.0	5	27	m	59.0	0	342
Frame#	Time	RHip			RKnee			RAnkle			RBigToe			RSmallToe			RHeel			LHip			LKnee			LAnkle			LBigToe			LSmallToe			LHeel			Neck			Head			Nose			RShoulder			RElbow			RWrist			RThumb			RIndex			RPinky			LShoulder			LElbow			LWrist			LThumb			LIndex			LPinky			
		X1	Y1	Z1	X2	Y2	Z2	X3	Y3	Z3	X4	Y4	Z4	X5	Y5	Z5	X6	Y6	Z6	X7	Y7	Z7	X8	Y8	Z8	X9	Y9	Z9	X10	Y10	Z10	X11	Y11	Z11	X12	Y12	Z12	X13	Y13	Z13	X14	Y14	Z14	X15	Y15	Z15	X16	Y16	Z16	X17	Y17	Z17	X18	Y18	Z18	X19	Y19	Z19	X20	Y20	Z20	X21	Y21	Z21	X22	Y22	Z22	X23	Y23	Z23	X24	Y24	Z24	X25	Y25	Z25	X26	Y26	Z26	X27	Y27	Z27	
0	0.0	0.3669464367895532	0.4087438853507856	1.0845610694127865	0.33844910506483855	0.4675309468827761	1.5290322349339927	0.32744937927986617	0.4660227130045924	1.8999760774624634	0.3160874281408595	0.32762114699371825	1.914823831843313	0.3723464759325198	0.34296011625012246	1.9214410934004624	0.30450340841805673	0.5390310018454122	1.9840419581754405	0.17606343204192768	0.4340728581688718	1.0986304607268373	0.17229657512102164	0.4470110034383977	1.512268500575853	0.1473704418322373	0.49648994140076974	1.9371110811660925	0.15257294774363864	0.30994313654519806	1.9076450560957672	0.11277537339610409	0.3532948699499759	1.9217486748597201	0.15440420708902103	0.5305601412809988	1.9864786218777277	0.2525147106756811	0.4207329544450594	0.5329969052047968	0.23170264088491982	0.38694214328650994	0.29766845005031317	0.21946303574669965	0.3251561712235919	0.411847079831673	0.40173093376055435	0.4179133902864521	0.6152508316602493	0.4505963295990604	0.38973286511360516	0.8614380469271238	0.29743765927825866	0.2777987647381889	0.9955122575441178	0.19788562230985315	0.23583196697690018	1.0441535682609795	0.19777377558569195	0.2370458915748012	1.0505362354585657	0.23757295907519355	0.2574265727882405	1.091028111984935	0.09260588225387323	0.42533736922875476	0.6211096785343504	0.040168595369287595	0.3824219891394322	0.8569104178331445	0.1795851931648181	0.24690120501880594	0.9763646274801525	0.23956747333414297	0.24338762906307004	1.0420851518166625	0.24994969337970943	0.2521806498958914	1.0604275189516255	0.2252348634033155	0.28911466069644864	1.0798022991201546
1	0.01694915254237288	0.3669602947445314	0.4080117915791035	1.0844379007054534	0.3436152820592081	0.4697701904419059	1.5256283254644394	0.33230721897916915	0.468234267874016	1.9007833745566656	0.31604605600271585	0.3274478873115563	1.9148097925371543	0.37322036905460143	0.3423760111966881	1.9168981108368612	0.30758543317961967	0.5504446406021989	1.9863950298685138	0.1769401366562449	0.4332500018147115	1.0971992540860716	0.17366089155954267	0.4452240909955297	1.511429212301854	0.1485485091511376	0.4960322650866852	1.9322309529039492	0.15152595511193584	0.3082652832089458	1.9023994698330957	0.10753624490978977	0.3499194815783098	1.9152167966739515	0.15388259573973467	0.5325094398448549	1.982298863973069	0.2525107623070805	0.42066352117041333	0.5330045213892782	0.23188462988064135	0.38730047157698966	0.2977017274591007	0.2194362971473296	0.32523382354676306	0.4117088182700082	0.40211134380388835	0.41666937693787764	0.6185941716902219	0.450611223478775	0.3883083324344757	0.8688370405210489	0.2974490003282194	0.27769530951082855	0.9954398336121081	0.19825925338958986	0.23567703256144043	1.04455340818103	0.197909626090201	0.23682463438155996	1.0506414162021447	0.23752335395330726	0.25759178750376843	1.0913588892085144	0.0925410783356637	0.4253124142557611	0.6210389177306564	0.04018080810383969	0.3822874472244792	0.8569484425833525	0.17957658483648634	0.24699939779260965	0.9759517342033515	0.24696801729827092	0.24117354535027194	1.0407795407689509	0.2547506498189271	0.24066421096538373	1.0555432381904453	0.22539863506715577	0.2893143430471823	1.0794692450288834
2	0.03389830508474576	0.3667213114139829	0.40661161927327055	1.092037198470181	0.34738232035022326	0.4814946634793017	1.5314063953880612	0.332382287599853	0.4683912896176805	1.9008714366550004	0.3160683456915904	0.32747207439490167	1.914858852856836	0.3732530378373928	0.34239794053566935	1.9168989007132884	0.3097724136655342	0.5523958592725788	1.9876272093605474	0.1769636883500004	0.43327779652478166	1.0970237405664378	0.17439767006748585	0.4464579315385878	1.5169363215001603	0.1531465030196259	0.4982888503355672	1.9333284601796454	0.15155150831128175	0.30831086144510234	1.9024091806521854	0.1075756397202855	0.3498612759771568	1.9150971122859504	0.15807415361074872	0.5363035833201996	1.9845981739099452	0.25251466275310663	0.4206996649380053	0.5330636454140215	0.23194546532182297	0.3873795196941471	0.29773596413336756	0.2156975242727258	0.3237866695313976	0.41178305939927506	0.40544748340645004	0.4052446631784123	0.6128003923046635	0.4506388623855261	0.38824100294918423	0.8688490013471131	0.29683485569017093	0.2767910408221304	0.9920808230178791	0.1992287494532211	0.2352051124165864	1.0446495750019447	0.19799862108493307	0.23640972911777325	1.0506139395764205	0.24042375228564836	0.26759591481579476	1.0955994100809694	0.09253594840434837	0.42530627795332937	0.6210084907649132	0.04222240555220315	0.3929558597945306	0.860056152622971	0.17951490785581414	0.24722926583970728	0.976076541194064	0.2474242830348576	0.24034650450220232	1.0370402906804896	0.25544107712980413	0.2393048228298037	1.0516199532536858	0.22528283631852764	0.2888807006229191	1.0791513561651151
3	0.05084745762711865	0.3633140211084198	0.39714090791976214	1.0807402850819539	0.34284760251631724	0.4700192463918168	1.5302193857847786	0.32787302437330806	0.4663288040488513	1.899970448110464	0.3194740092738368	0.33856018631659474	1.922111363376604	0.37335674772562333	0.3426266164497688	1.9169168796787959	0.30764605585870797	0.551243773167508	1.986808617186782	0.1766276823866952	0.43429562617881734	1.093826535152723	0.17278009412415193	0.44538408046061717	1.515455126742897	0.15201859329786457	0.4987272746615366	1.9379717115679747	0.15158400706579622	0.3085043424241044	1.9026441595520636	0.10825858846057945	0.35120732006653715	1.9207488750018196	0.15821914701643103	0.536703979740273	1.9848096315374335	0.25251606338852794	0.420735025221056	0.5331244609936117	0.23186228359777847	0.38735641498601414	0.29771000631989586	0.2156721331639689	0.3237727861482166	0.4118592537042404	0.401756617495241	0.41781525535355946	0.6153011589226621	0.4506951870953673	0.3881890322803457	0.8686492353141946	0.2938950365481409	0.2678407171567884	0.9889295475349782	0.1987041718690518	0.23561553925229073	1.0475840764679982	0.19825225882071082	0.23691574379171493	1.0509335168077831	0.2406711166238783	0.2679770560498921	1.0958124230070314	0.0925682046026706	0.4252614703428665	0.6209920708098761	0.0423765568809534	0.3929280357919811	0.85981278125723	0.17920449348574	0.2483680363253251	0.9727434748830224	0.24765019023452886	0.24125472690557823	1.0377350864105268	0.2555540055028585	0.23981537040346415	1.0520412639257788	0.22509078393829107	0.28826553752460343	1.0791034157573798
4	0.06779661016949153	0.36672449547238684	0.4063719727014942	1.0918640569660731	0.3430658908116884	0.47917258089161613	1.5301102427627997	0.3278629332203642	0.46645728573921735	1.9000416715464805	0.31948100370544685	0.33851789707271895	1.9221728007180616	0.3773136176337756	0.3289053648753143	1.9073122580096633	0.3041246660360408	0.5674679519585725	1.9928342639785435	0.17663231918376948	0.43439625534671694	1.0938026019752691	0.1728036880526552	0.44544473506104365	1.515406927107056	0.15200127414396847	0.4986541164862483	1.93787669671193	0.1515787567822265	0.30861961570990076	1.903022779207096	0.10758408218807546	0.34955168244265983	1.9151100123947624	0.15808942566734333	0.5362072338817798	1.9846478006361234	0.2525109502469265	0.4207359489937636	0.5330148027231598	0.23480958353233466	0.39671612724204597	0.3014663940046068	0.21571157867695284	0.3238162201700532	0.4117869415394927	0.40173191534311103	0.41782874019011784	0.6152860772619931	0.45075029589891497	0.388122577183109	0.8684566091735338	0.2969069679713731	0.2767311883504995	0.9919090829427921	0.19904177631587724	0.23421694680195082	1.0439624049241505	0.1981442160766486	0.23647343787986916	1.050633587001344	0.24529793399372785	0.2562125339550069	1.0909879628339196	0.0926145795172174	0.42524438199797643	0.6209398741220729	0.04456077578061559	0.403584084255418	0.8627075262555234	0.17939357816345852	0.24745228966074154	0.9656084509632477	0.24432168185666106	0.2307494368587261	1.0340482736558407	0.25465206270371926	0.23844512947023888	1.0520035914630963	0.22512622605188393	0.2882496329507739	1.0791937650435102
